<?xml version="1.0"?><svg width="2271.4375" height="1665.7122" xmlns="http://www.w3.org/2000/svg" xmlns:xlink="http://www.w3.org/1999/xlink">
 <title>trees sky grass</title>
 <defs>
  <linearGradient id="linearGradient4641">
   <stop offset="0" id="stop4643" stop-color="#fcaf3e"/>
   <stop offset="1" id="stop4645" stop-color="#ffce86"/>
  </linearGradient>
  <linearGradient id="linearGradient4368">
   <stop id="stop4370" offset="0" stop-color="#69d007"/>
   <stop id="stop4372" offset="1" stop-opacity="0" stop-color="#4e9a06"/>
  </linearGradient>
  <linearGradient id="linearGradient4336">
   <stop offset="0" id="stop4338" stop-color="#458905"/>
   <stop offset="1" id="stop4340" stop-opacity="0" stop-color="#4e9a06"/>
  </linearGradient>
  <linearGradient id="linearGradient4328">
   <stop offset="0" id="stop4330" stop-color="#8f5902"/>
   <stop offset="1" id="stop4332" stop-color="#724701"/>
  </linearGradient>
  <linearGradient id="linearGradient4238">
   <stop offset="0" id="stop4240" stop-color="#55a800"/>
   <stop offset="1" id="stop4242" stop-color="#74e400"/>
  </linearGradient>
  <linearGradient id="linearGradient4191">
   <stop offset="0" id="stop4193" stop-color="#007900"/>
   <stop offset="1" id="stop4195" stop-opacity="0" stop-color="#008400"/>
  </linearGradient>
  <linearGradient id="linearGradient4180">
   <stop offset="0" id="stop4182" stop-color="#00a400"/>
   <stop offset="1" id="stop4184" stop-opacity="0" stop-color="#00a400"/>
  </linearGradient>
  <linearGradient id="linearGradient4103">
   <stop offset="0" id="stop4105" stop-color="#00acf4"/>
   <stop offset="1" id="stop4107" stop-color="#a6e5ff"/>
  </linearGradient>
  <linearGradient xlink:href="#linearGradient4103" id="linearGradient4109" x1="0.474214" y1="-0.189418" x2="0.474214" y2="1.000097"/>
  <linearGradient xlink:href="#linearGradient4191" id="linearGradient4200" x1="0.492076" y1="-0.488398" x2="0.490848" y2="0.524211"/>
  <clipPath clipPathUnits="userSpaceOnUse" id="clipPath4234">
   <path d="m-778.794556,92.707787c-11.65564,0 -21.0625,5.752144 -21.0625,12.875l0,830.031227c73.681519,-9.907227 153.852417,-15.0625 237.156128,-15.0625c343.817139,0 484.305725,44.117554 822.843811,235.71875c342.857117,194.045776 775.268127,461.424072 -891.406311,464.28125c-60.104736,0.103271 -116.483887,-9.398071 -168.593628,-25.937378l0,150.96875c0,7.122803 9.40686,12.843994 21.0625,12.843628l2229.34375,0c11.655518,0 21.03125,-5.720825 21.03125,-12.843628l0,-640.000122l0,-67.40625l0,-932.593727c0,-7.122856 -9.375732,-12.875 -21.03125,-12.875l-2229.34375,0z" id="path4236" stroke-dashoffset="0" stroke-miterlimit="4" stroke-linejoin="round" stroke-linecap="round" stroke-width="3" fill="#9cf000"/>
  </clipPath>
  <clipPath clipPathUnits="userSpaceOnUse" id="clipPath4253">
   <path d="m195.491058,69.850647c-11.655579,0 -21.0625,5.752136 -21.0625,12.874992l0,830.031197l0,169.96875l0,640c0,7.122925 9.406952,12.843994 21.0625,12.84375l2229.343903,0c11.655273,0 21.03125,-5.720947 21.03125,-12.84375l0,-640l0,-67.40625l0,-932.593697c0,-7.122856 -9.375977,-12.874992 -21.03125,-12.874992l-2229.343903,0z" id="path4255" stroke-dashoffset="0" stroke-miterlimit="4" stroke-linejoin="round" stroke-linecap="round" stroke-width="3" fill="url(#linearGradient4257)"/>
  </clipPath>
  <linearGradient xlink:href="#linearGradient4103" id="linearGradient4257" x1="0.474216" y1="-0.116636" x2="0.474216" y2="0.615842"/>
  <linearGradient xlink:href="#linearGradient4180" id="linearGradient4261" x1="0.357287" y1="-0.120598" x2="0.357287" y2="0.581632"/>
  <linearGradient xlink:href="#linearGradient4238" id="linearGradient4263" x1="0.5" y1="-0.070132" x2="0.510673" y2="1.425902"/>
  <linearGradient xlink:href="#linearGradient4336" id="linearGradient4382" x1="0.762445" y1="0.904776" x2="0.65567" y2="0.534206"/>
  <linearGradient xlink:href="#linearGradient4368" id="linearGradient4384" x1="0.43915" y1="0" x2="0.552103" y2="0.5"/>
  <linearGradient xlink:href="#linearGradient4368" id="linearGradient4386" x1="0.109724" y1="0.000174" x2="0.683021" y2="0.815686"/>
  <linearGradient xlink:href="#linearGradient4336" id="linearGradient4388" x1="0.037881" y1="0.75149" x2="0.659074" y2="0.18054"/>
  <linearGradient xlink:href="#linearGradient4328" id="linearGradient4390" x1="0.5" y1="0.5" x2="0.999999" y2="0.5"/>
  <filter x="-0.191161" width="1.382322" y="-0.630123" height="2.260247" id="filter4635">
   <feGaussianBlur stdDeviation="40.507936" id="feGaussianBlur4637"/>
  </filter>
  <radialGradient xlink:href="#linearGradient4641" id="radialGradient4647" cx="-640" cy="-27.637817" fx="-640" fy="-27.637817" r="284.19949" gradientTransform="matrix(1.3896636,0.7071731,-0.555426,1.0914658,234.03392,455.11869)" gradientUnits="userSpaceOnUse"/>
  <filter x="-0.248163" width="1.496326" y="-0.264348" height="1.528696" id="filter4962">
   <feGaussianBlur stdDeviation="57.904762" id="feGaussianBlur4964"/>
  </filter>
  <filter x="-0.130332" width="1.260664" y="-0.297911" height="1.595822" id="filter5183">
   <feGaussianBlur stdDeviation="24.825904" id="feGaussianBlur5185"/>
  </filter>
  <clipPath clipPathUnits="userSpaceOnUse" id="clipPath5381">
   <path d="m490.213013,-81.600197c-48.512512,0 -90.277039,11.929924 -108.884583,29.028996c-4.26886,-0.29483 -8.609497,-0.457607 -13.019836,-0.457581c-57.891602,0 -104.884521,26.515871 -104.884521,59.185262c0,28.59151 35.995605,52.464549 83.786011,57.979873c14.848328,30.919441 81.280579,54.263428 160.924805,54.263428c90.548401,0 164.042603,-30.168213 164.042603,-67.34375l-0.117676,-1.082581c29.333679,-9.232059 48.520508,-24.50153 48.520508,-41.77458l-0.421509,-4.38614c-5.100586,-26.50936 -53.967407,-46.620641 -113.325806,-46.640641c-11.480103,-22.433395 -59.405518,-38.772331 -116.619995,-38.772301l0,0.000015z" id="path5383" stroke-dashoffset="0" stroke-miterlimit="4" stroke-linejoin="round" stroke-linecap="round" stroke-width="5" fill="#fdfdfd" opacity="0.893333"/>
  </clipPath>
  <filter x="-0.095726" width="1.191452" y="-0.218809" height="1.437617" id="filter5445">
   <feGaussianBlur stdDeviation="18.234042" id="feGaussianBlur5447"/>
  </filter>
  <clipPath clipPathUnits="userSpaceOnUse" id="clipPath5495">
   <path id="path5497" d="m1524.498657,-173.028763c-48.512451,0 -90.276978,11.929916 -108.884521,29.028992c-4.268921,-0.294815 -8.609497,-0.457611 -13.019897,-0.457565c-57.891602,0 -104.884399,26.515854 -104.884399,59.185249c0,28.591496 35.995483,52.464558 83.786011,57.979877c14.848267,30.91944 81.280518,54.263399 160.924805,54.26343c90.54834,0 164.042603,-30.16824 164.042603,-67.343779l-0.117798,-1.082561c29.33374,-9.23204 48.520752,-24.501537 48.520752,-41.774593l-0.421875,-4.386124c-5.100586,-26.509361 -53.967285,-46.620644 -113.325684,-46.640633c-11.480103,-22.433411 -59.405396,-38.772339 -116.619995,-38.772293z" stroke-dashoffset="0" stroke-miterlimit="4" stroke-linejoin="round" stroke-linecap="round" stroke-width="5" fill="#fdfdfd" opacity="0.893333"/>
  </clipPath>
  <filter x="-0.095832" width="1.191665" y="-0.219052" height="1.438104" id="filter5575">
   <feGaussianBlur stdDeviation="18.254341" id="feGaussianBlur5577"/>
  </filter>
  <clipPath clipPathUnits="userSpaceOnUse" id="clipPath5671">
   <rect id="rect5673" width="3815.5286" height="1722.9872" x="-367.71918" y="-280.65996" rx="35.341087" ry="21.597332" stroke-dashoffset="0" stroke-miterlimit="4" stroke-linejoin="round" stroke-linecap="round" stroke-width="3" fill="url(#linearGradient5675)"/>
  </clipPath>
  <linearGradient xlink:href="#linearGradient4103" id="linearGradient5675" x1="0.474214" y1="-0.189418" x2="0.474214" y2="1.000097"/>
  <clipPath clipPathUnits="userSpaceOnUse" id="clipPath5677">
   <rect ry="20.374983" rx="33.340881" y="-268.42346" x="-359.16412" height="1625.4709" width="3599.5803" id="rect5679" stroke-dashoffset="0" stroke-miterlimit="4" stroke-linejoin="round" stroke-linecap="round" stroke-width="3" fill="url(#linearGradient5681)"/>
  </clipPath>
  <linearGradient xlink:href="#linearGradient4103" id="linearGradient5681" x1="0.474214" y1="-0.189418" x2="0.474214" y2="1.000097"/>
 </defs>
 <metadata id="metadata7">image/svg+xmlSummer LandscapeCarlos AsmatsummergreenlandscapetreecloudsA simple summer landscape featuring green grass, a blue sky and white clouds.</metadata>
 <g>
  <title>Layer 1</title>
  <g id="layer2" display="inline">
   <rect id="rect2160" width="2271.4285" height="1025.7142" x="0.00891" y="0" rx="21.03896" ry="12.857142" stroke-dashoffset="0" stroke-miterlimit="4" stroke-linejoin="round" stroke-linecap="round" stroke-width="3" fill="url(#linearGradient4109)"/>
   <path d="m1211.4375,804.96228c-215.17157,0 -379.221558,34.240723 -506.1875,86.40625c-139.692749,-48.926025 -270.224243,-63.53125 -468.09375,-63.53125c-83.302917,0 -163.475647,5.155029 -237.15625,15.0625l0,809.96875c0,7.122925 9.40692,12.84375 21.0625,12.84375l2229.34375,0c11.655518,0 21.03125,-5.720947 21.03125,-12.84375l0,-707.40625c-167.743164,0.928467 -334.178711,3.173828 -499.125,6.71875c-168.047607,-63.883789 -304.033447,-147.21875 -560.875,-147.21875z" id="path4202" stroke-dashoffset="0" stroke-miterlimit="4" stroke-linejoin="round" stroke-linecap="round" stroke-width="3" fill="url(#linearGradient4263)"/>
   <path d="m1960.008789,1006.40033c273.656006,51.378845 3923.446289,427.816101 -745.714111,375.714417c-4661.07959,-52.101807 -787.936462,-313.383789 -700.000061,-381.428772c140,-108.331421 353.325745,-195.714233 697.142883,-195.714233c343.817139,0 471.074219,149.328613 748.571289,201.428589z" id="path4113" clip-path="url(#clipPath4234)" stroke-dashoffset="0" stroke-miterlimit="4" stroke-linejoin="round" stroke-linecap="round" stroke-width="3" fill="url(#linearGradient4200)"/>
   <path d="m1060.008911,1063.543091c342.857178,194.045776 775.245605,461.428711 -891.428589,464.285889c-343.816589,0.590332 -565.51532,-312.666016 -565.714233,-464.285889c-0.19043,-148.015076 290.468575,-235.714172 634.285706,-235.714172c343.817078,0 484.319031,44.113037 822.857117,235.714172z" id="path4111" clip-path="url(#clipPath4253)" stroke-dashoffset="0" stroke-miterlimit="4" stroke-linejoin="round" stroke-linecap="round" stroke-width="3" fill="url(#linearGradient4261)"/>
  </g>
  <g id="layer1" display="inline">
   <path d="m813.935791,1047.828369c67.916931,0 126.386719,11.929932 152.437073,29.029053c5.976379,-0.294922 12.053223,-0.457642 18.2276,-0.457642c81.047607,0 146.837158,26.515869 146.837158,59.185303c0,28.591431 -50.393433,52.4646 -117.2995,57.979858c-20.787476,30.919434 -113.791809,54.263428 -225.292786,54.263428c-126.766724,0 -229.657776,-30.168213 -229.657776,-67.34375l0.164795,-1.082642c-41.066833,-9.231934 -67.928253,-24.501465 -67.928253,-41.774536l0.59024,-4.386108c7.140747,-26.509399 75.553711,-46.620728 158.654785,-46.640625c16.072021,-22.433472 83.166992,-38.772339 163.266663,-38.772339z" id="path5189" filter="url(#filter5183)" stroke-dashoffset="0" stroke-miterlimit="4" stroke-linejoin="round" stroke-linecap="round" stroke-width="5" fill="#000000" opacity="0.031111"/>
   <path d="m266.681488,128.708237c0,90.217331 -76.80896,163.891312 -172.887817,165.831345c-96.078871,1.940002 -176.191193,-68.56546 -180.323288,-158.699371c-4.132095,-90.133919 69.231438,-166.84013 165.132584,-172.656559c95.901169,-5.816402 179.16864,61.390129 187.425201,151.273899" id="path4649" clip-path="url(#clipPath5677)" filter="url(#filter4962)" stroke-dashoffset="0" stroke-miterlimit="4" stroke-linejoin="round" stroke-linecap="round" stroke-width="8.398963" fill="#f57900" opacity="0.288889"/>
   <g id="g4374" transform="matrix(0.5585167568461418,0,0,0.5308502595686853,963.7145421910543,129.37869900742362) ">
    <path id="path4314" d="m-972.47229,753.893311c-94.875244,0 -178.407715,43.14325 -226.9375,108.40625c-152.312256,26.53241 -267.34375,145.771362 -267.34375,288.75c0,76.827881 33.231445,146.791748 87.59375,199.21875c-1.229736,10.579712 -1.875,21.337158 -1.875,32.21875c0,164.022949 143.360107,297.125 320,297.125c87.112549,0 166.122803,-32.382813 223.84375,-84.875c39.230469,17.85498 82.358643,27.75 127.59375,27.75c181.37146,0 328.5625,-158.746826 328.5625,-354.3125c0,-195.565674 -147.19104,-354.28125 -328.5625,-354.28125c-2.30249,0 -4.61499,0.042847 -6.90625,0.09375c-37.267334,-93.218933 -137.83252,-160.09375 -255.96875,-160.09375z" stroke-dashoffset="0" stroke-miterlimit="4" stroke-linejoin="round" stroke-linecap="round" stroke-width="3" fill="#4e9a06"/>
    <path d="m-381.039307,1268.187866c0.044739,195.700806 -147.074829,354.373169 -328.571472,354.373169c-181.496643,0 -328.61615,-158.672363 -328.571472,-354.373169c-0.044678,-195.700684 147.074829,-354.373047 328.571472,-354.373047c181.496643,0 328.616211,158.672363 328.571472,354.373047z" id="path4305" stroke-dashoffset="0" stroke-miterlimit="4" stroke-linejoin="round" stroke-linecap="round" stroke-width="3" fill="url(#linearGradient4382)"/>
    <path d="m-701.039307,993.902222c0,132.54834 -121.522766,240 -271.428589,240c-149.905884,0 -271.428589,-107.45166 -271.428589,-240c0,-132.54834 121.522705,-240.000061 271.428589,-240.000061c149.905823,0 271.428589,107.451721 271.428589,240.000061z" id="path4301" stroke-dashoffset="0" stroke-miterlimit="4" stroke-linejoin="round" stroke-linecap="round" stroke-width="3" fill="url(#linearGradient4384)"/>
    <path d="m-803.896545,1151.045044c0.06366,162.569336 -148.340637,294.387939 -331.428528,294.387939c-183.087891,0 -331.492188,-131.818604 -331.428467,-294.387939c-0.063721,-162.569458 148.340576,-294.387939 331.428467,-294.387939c183.087891,0 331.492188,131.818481 331.428528,294.387939z" id="path4303" stroke-dashoffset="0" stroke-miterlimit="4" stroke-linejoin="round" stroke-linecap="round" stroke-width="3" fill="url(#linearGradient4386)"/>
    <path d="m-741.039185,1382.473633c0.054138,164.143066 -143.230591,297.233887 -320,297.233887c-176.769409,0 -320.054077,-133.09082 -320,-297.233887c-0.054077,-164.143066 143.230591,-297.233887 320,-297.233887c176.769409,0 320.054138,133.09082 320,297.233887z" id="path4307" stroke-dashoffset="0" stroke-miterlimit="4" stroke-linejoin="round" stroke-linecap="round" stroke-width="3" fill="url(#linearGradient4388)" opacity="0.311111"/>
    <path id="rect4323" d="m-1076.569702,1505.702026c167.685303,278.802124 150.512695,-74.751221 238.395996,44.446777c-61.619385,349.512817 50.507568,480.83252 12.121826,848.528198c-123.23877,44.446777 -110.106689,-46.467041 -335.370605,-24.243896c-7.071289,-341.431396 82.83252,-626.294312 84.852783,-868.731079z" stroke-dashoffset="0" stroke-miterlimit="4" stroke-linejoin="round" stroke-linecap="round" stroke-width="3" fill="url(#linearGradient4390)"/>
   </g>
   <path id="path7786" d="m183.802582,1311.559814c-4.279587,1.387207 -5.350021,4.572754 -8.943298,9.336548c-4.675934,8.175171 -14.147217,32.659424 -13.081573,36.662964c1.412354,7.212036 13.310974,-33.654053 22.024872,-45.999512zm-80.342003,17.827271c10.156914,29.462891 11.112968,31.670044 19.03434,31.242676c-1.682281,-5.436523 -6.511772,-9.86438 -9.900795,-15.030273c-3.612305,-5.506836 -5.575867,-15.805054 -9.133545,-16.212402zm35.701256,1.074219c-11.559898,19.250366 -12.794556,26.183472 -10.847412,28.351318c3.560242,2.092651 2.783066,-3.369385 10.847412,-28.351318zm21.626785,4.128052c-2.845886,-0.738525 -4.919083,5.929077 -6.050278,11.38269c-2.888214,13.924683 -2.920929,11.915039 -0.974045,13.095215c2.684158,1.627075 2.667313,-12.581177 7.024323,-24.477905zm19.142227,-1.278564c-2.978745,0.135864 -4.528152,5.776611 -6.616913,10.983276c-2.097794,9.928223 -8.203705,16.095459 -3.8974,16.472656c4.281403,0.374878 7.243484,-15.672119 10.514313,-27.455933zm-31.925858,3.819092c-9.393738,15.963867 -11.402878,20.860352 -7.629791,21.519653c2.432602,0.424805 2.624603,-3.476074 5.401855,-10.03479c1.788864,-4.224731 4.019226,-7.926758 2.227936,-11.484863z" stroke-dashoffset="0" stroke-miterlimit="4" stroke-linejoin="round" stroke-linecap="round" stroke-width="3" fill="#1e9e00" opacity="0.698"/>
   <g id="g7640">
    <path d="m300.943848,1523.016846c0.008209,8.748413 -13.734467,15.842529 -30.689697,15.842529c-16.955261,0 -30.697891,-7.094116 -30.689697,-15.842529c-0.008194,-8.748291 13.734436,-15.842407 30.689697,-15.842407c16.955231,0 30.697906,7.094116 30.689697,15.842407z" id="path4271" stroke-dashoffset="0" stroke-miterlimit="4" stroke-linejoin="round" stroke-linecap="round" stroke-width="3" fill="#ad7fa8"/>
    <path id="path5606" d="m179.157257,1368.001465c-1.758392,1.125732 -6.097015,0.096069 -8.559433,0.467896c-2.543762,0.384155 -5.289566,3.505981 -7.867325,3.049561c-2.495178,-0.441772 -4.090698,-3.918701 -5.912994,-5.011353c-1.882599,-1.128784 -5.705292,-0.902466 -6.525116,-2.416382c-0.79361,-1.465454 2.595978,-3.839844 3.277084,-5.32312c0.703552,-1.532471 -1.107819,-4.112427 0.788467,-5.205444c1.835587,-1.058105 5.886917,0.412231 8.317947,0.003052c2.511322,-0.422607 5.191208,-2.963867 7.788742,-2.587891c2.514328,0.364136 4.172516,2.97168 6.015503,4.020142c1.904053,1.083252 7.032578,1.40271 7.904236,2.878052c0.84375,1.427979 -4.317307,3.10022 -4.837311,4.599731c-0.537064,1.549072 1.426651,4.362793 -0.389801,5.525757z" stroke-dashoffset="0" stroke-miterlimit="4" stroke-linejoin="round" stroke-linecap="round" stroke-width="3" fill="#ce5c00"/>
    <path id="path5604" d="m129.22023,1403.546753c-2.205223,1.146118 -6.41629,1.354736 -9.547607,1.756592c-3.131325,0.401733 -7.715866,2.328613 -10.798706,1.857788c-3.082733,-0.470581 -5.891258,-2.789063 -8.136284,-3.893555c-2.245125,-1.104492 -6.319595,-2.226685 -7.269806,-3.73877c-0.950211,-1.512207 2.10453,-3.841064 2.850052,-5.333496c0.745422,-1.492554 -0.113731,-4.409302 2.185684,-5.485229c2.299507,-1.07605 7.967415,-0.414429 10.956627,-0.895752c2.989113,-0.481201 5.884972,-2.151123 8.99324,-1.760254c3.108368,0.390747 5.90155,2.740723 8.136391,3.893555c2.234734,1.152832 8.091606,1.720581 9.104881,3.19458c1.013153,1.473999 -2.140366,3.9021 -2.977112,5.373657c-0.836777,1.471558 -1.292053,3.88501 -3.49736,5.030884z" stroke-dashoffset="0" stroke-miterlimit="4" stroke-linejoin="round" stroke-linecap="round" stroke-width="3" fill="#f57900"/>
    <path d="m215.199051,1375.519043c-1.75148,0.892212 -6.773376,-0.439819 -9.191391,0.035889c-2.41803,0.47583 -7.384338,3.029419 -10.034103,2.733887c-2.649765,-0.295532 -3.986404,-2.641235 -6.213486,-3.380249c-2.227188,-0.738892 -6.17775,-0.638306 -7.213562,-1.741943c-1.035721,-1.103638 1.366989,-3.686157 1.989532,-4.835205c0.622543,-1.14917 -1.18515,-3.25061 0.545807,-4.202026c1.730942,-0.951416 6.985825,-0.758911 9.562988,-1.075317c2.577072,-0.316406 5.474197,-1.831543 8.171692,-1.635498c2.697388,0.195923 5.332855,2.098511 7.573456,2.792969c2.240692,0.69458 6.525162,1.465088 7.715973,2.558838c1.190826,1.09375 -1.786209,2.349854 -2.082169,3.541382c-0.295959,1.191528 0.926743,4.315063 -0.824738,5.207275z" id="path5600" stroke-dashoffset="0" stroke-miterlimit="4" stroke-linejoin="round" stroke-linecap="round" stroke-width="3" fill="#fcc916"/>
    <path d="m165.422791,1387.842041c-1.966553,1.304077 -7.530731,-0.039185 -10.31517,0.617554c-2.784454,0.65686 -7.625351,3.8125 -10.632309,3.44043c-3.007065,-0.371948 -4.733322,-3.543091 -7.192581,-4.620728c-2.459244,-1.077759 -7.250732,-1.216797 -8.385574,-2.817749c-1.13485,-1.600952 1.802994,-4.833374 2.430786,-6.508423c0.627777,-1.675171 -1.297699,-4.656006 0.654327,-6.013184c1.95192,-1.3573 7.677277,-1.034912 10.575272,-1.547852c2.89798,-0.513062 6.29068,-2.740234 9.328568,-2.457642c3.037964,0.282715 5.674545,3.057251 8.144562,4.095459c2.470139,1.038086 7.493759,1.9552 8.737335,3.548706c1.243637,1.593506 -2.097458,3.637573 -2.495621,5.350586c-0.398163,1.712769 1.116974,5.608643 -0.849594,6.912842z" id="path5598" stroke-dashoffset="0" stroke-miterlimit="4" stroke-linejoin="round" stroke-linecap="round" stroke-width="3" fill="#ad7fa8"/>
    <path d="m159.17749,1422.577393c-2.807007,1.65625 -9.733383,0.141235 -13.664276,0.688477c-4.06105,0.565308 -8.444351,5.158813 -12.559525,4.487183c-3.983337,-0.650146 -6.530457,-5.766235 -9.439598,-7.374023c-3.005394,-1.660767 -9.108131,-1.327881 -10.416924,-3.55542c-1.26693,-2.15625 4.144409,-5.650146 5.231613,-7.832642c1.123276,-2.254883 -1.768555,-6.051147 1.25882,-7.659546c2.930389,-1.557007 9.397964,0.606689 13.278793,0.004639c4.009232,-0.62207 8.287323,-4.36145 12.434052,-3.807983c4.013901,0.535645 6.661194,4.372437 9.603363,5.915405c3.03952,1.593872 11.226929,2.063965 12.618454,4.234741c1.346848,2.101318 -6.892365,4.56189 -7.722366,6.768188c-0.857498,2.279297 2.277527,6.4198 -0.622406,8.130981z" id="path5594" stroke-dashoffset="0" stroke-miterlimit="4" stroke-linejoin="round" stroke-linecap="round" stroke-width="3" fill="#ce5c00"/>
    <path id="path5592" d="m191.795959,1411.455322c-2.321777,1.304199 -8.891068,-0.039185 -12.178436,0.617676c-3.287399,0.65686 -9.002579,3.812378 -12.552765,3.44043c-3.550186,-0.37207 -5.588165,-3.543091 -8.491608,-4.62085c-2.90358,-1.077759 -8.560501,-1.216797 -9.900238,-2.817749c-1.339813,-1.600708 2.128571,-4.83313 2.869858,-6.508423c0.741165,-1.675171 -1.532196,-4.656006 0.772415,-6.013062c2.304596,-1.3573 9.064087,-1.034912 12.485519,-1.547852c3.421417,-0.513062 7.42691,-2.740356 11.013519,-2.457642c3.586594,0.282593 6.699402,3.057129 9.615677,4.095337c2.916183,1.03833 8.847321,1.955322 10.315491,3.548706c1.46817,1.593506 -2.476303,3.637817 -2.946381,5.350586c-0.470184,1.713013 1.318726,5.608643 -1.003052,6.912842z" stroke-dashoffset="0" stroke-miterlimit="4" stroke-linejoin="round" stroke-linecap="round" stroke-width="3" fill="#3465a4"/>
    <path id="path5590" d="m215.520386,1456.444946c-2.779709,1.441772 -10.749985,-0.710571 -14.587433,0.058228c-3.83757,0.768921 -11.719482,4.895508 -15.924835,4.417847c-4.205368,-0.477783 -6.326736,-4.268188 -9.86142,-5.462524c-3.534546,-1.194092 -9.804398,-1.031494 -11.448303,-2.814941c-1.643906,-1.783447 2.169495,-5.956787 3.157501,-7.813843c0.988022,-1.856934 -1.881027,-5.252808 0.866257,-6.790405c2.747147,-1.537476 11.087051,-1.226563 15.177048,-1.737793c4.090012,-0.51123 8.687958,-2.959839 12.96907,-2.643066c4.281113,0.316772 8.463654,3.391235 12.019791,4.513672c3.55603,1.122314 10.355927,2.36731 12.245834,4.13501c1.889923,1.767578 -2.834869,3.797485 -3.304581,5.723022c-0.469696,1.925537 1.470795,6.973022 -1.308929,8.414795z" stroke-dashoffset="0" stroke-miterlimit="4" stroke-linejoin="round" stroke-linecap="round" stroke-width="3" fill="#fcaf3e"/>
    <path id="path5586" d="m265.005341,1479.021851c-3.33136,2.0354 -11.551544,0.173706 -16.216751,0.846191c-4.819641,0.694702 -10.021881,6.339233 -14.90564,5.514038c-4.727417,-0.79895 -7.75032,-7.085938 -11.202896,-9.061523c-3.566788,-2.041138 -10.809494,-1.631836 -12.362778,-4.369263c-1.503586,-2.64978 4.918564,-6.942993 6.208862,-9.625244c1.332977,-2.770752 -2.098907,-7.435791 1.493973,-9.412354c3.477768,-1.913208 11.153503,0.745605 15.759262,0.005615c4.758148,-0.764282 9.835373,-5.359375 14.756729,-4.679321c4.763687,0.658203 7.905487,5.373291 11.397247,7.269043c3.6073,1.95874 13.323944,2.536499 14.975403,5.203979c1.598572,2.582031 -8.179688,5.605835 -9.164734,8.317261c-1.01767,2.800903 2.702942,7.888916 -0.738678,9.991577z" stroke-dashoffset="0" stroke-miterlimit="4" stroke-linejoin="round" stroke-linecap="round" stroke-width="3" fill="#cc0000"/>
    <path d="m217.604355,1514.675293c-3.240662,1.698242 -12.53244,-0.837036 -17.006363,0.068726c-4.473907,0.90564 -13.662689,5.766113 -18.565384,5.203491c-4.902863,-0.5625 -7.375854,-5.027466 -11.496643,-6.434082c-4.120804,-1.406738 -11.430267,-1.215088 -13.346771,-3.315796c-1.916336,-2.10083 2.529251,-7.016479 3.681091,-9.203735c1.151779,-2.187378 -2.192795,-6.187378 1.009888,-7.998413c3.202606,-1.811035 12.925613,-1.444702 17.693817,-2.046997c4.768219,-0.602173 10.128601,-3.486328 15.119629,-3.113281c4.991013,0.373169 9.867111,3.994629 14.012787,5.31665c4.145828,1.322144 12.073151,2.788574 14.276459,4.870605c2.203293,2.082153 -3.30481,4.473022 -3.852402,6.741089c-0.547592,2.267944 1.714539,8.213623 -1.526108,9.911743z" id="path5582" stroke-dashoffset="0" stroke-miterlimit="4" stroke-linejoin="round" stroke-linecap="round" stroke-width="3" fill="#fcaf3e"/>
    <path d="m299.296082,1532.034302c-3.068634,1.832031 -11.750946,-0.055054 -16.095825,0.867798c-4.344849,0.922607 -11.89856,5.355591 -16.590668,4.832886c-4.6922,-0.522583 -7.385864,-4.977295 -11.223282,-6.491211c-3.837433,-1.513916 -11.314072,-1.709351 -13.084885,-3.958252c-1.770798,-2.248901 2.813416,-6.789673 3.792999,-9.142944c0.979584,-2.353271 -2.024918,-6.540649 1.021011,-8.447144c3.045807,-1.906738 11.97966,-1.453735 16.501694,-2.174438c4.522003,-0.720703 9.815948,-3.849365 14.556274,-3.452393c4.740479,0.396973 8.854584,4.294678 12.708832,5.753052c3.854401,1.458496 11.693268,2.746704 13.633728,4.985229c1.940582,2.238525 -3.272858,5.110107 -3.894165,7.516357c-0.621307,2.40625 1.74292,7.878906 -1.325714,9.71106z" id="path5576" stroke-dashoffset="0" stroke-miterlimit="4" stroke-linejoin="round" stroke-linecap="round" stroke-width="3" fill="#ad7fa8"/>
    <path id="path5574" d="m260.439667,1537.591919c-3.75589,2.007813 -10.92807,2.373657 -16.261093,3.077515c-5.333115,0.703979 -13.141357,4.079712 -18.391815,3.255127c-5.250366,-0.824585 -10.03363,-4.886841 -13.857407,-6.821899c-3.823608,-1.935181 -10.763077,-3.901367 -12.381409,-6.550659c-1.618439,-2.649414 3.584259,-6.729858 4.853897,-9.344849c1.269638,-2.615112 -0.193695,-7.72522 3.722626,-9.610596c3.916321,-1.885254 13.569626,-0.726074 18.660706,-1.569214c5.09108,-0.84314 10.023087,-3.769043 15.317032,-3.084106c5.293854,0.684692 10.051208,4.80188 13.857315,6.821899c3.806168,2.019897 13.781326,3.014404 15.506973,5.597046c1.725739,2.58252 -3.645233,6.836792 -5.070374,9.415039c-1.42514,2.578247 -2.200653,6.806763 -5.956451,8.814697z" stroke-dashoffset="0" stroke-miterlimit="4" stroke-linejoin="round" stroke-linecap="round" stroke-width="3" fill="#f57900"/>
    <path id="path5578" d="m241.38884,1427.390259c-2.744263,1.405151 -10.612747,-0.692505 -14.401367,0.056763c-3.78862,0.74939 -11.569992,4.770996 -15.72171,4.305542c-4.151733,-0.465576 -6.246033,-4.15979 -9.735504,-5.32373c-3.489594,-1.163818 -9.679474,-1.005249 -11.302399,-2.743408c-1.622803,-1.738037 2.141815,-5.80542 3.117233,-7.615234c0.975403,-1.809814 -1.856918,-5.119507 0.855179,-6.617798c2.712112,-1.498535 10.945633,-1.195313 14.983597,-1.693604c4.037842,-0.498413 8.577133,-2.884644 12.803635,-2.575928c4.226395,0.308594 8.355713,3.305054 11.866364,4.398926c3.510788,1.093872 10.223816,2.307251 12.08963,4.029907c1.865799,1.722656 -2.798721,3.70105 -3.262421,5.577637c-0.463715,1.876465 1.452042,6.795898 -1.292236,8.200928z" stroke-dashoffset="0" stroke-miterlimit="4" stroke-linejoin="round" stroke-linecap="round" stroke-width="3" fill="#fcc916"/>
    <path d="m103.882507,1363.714478c-2.245308,1.163574 -7.785324,0.099243 -10.929604,0.483643c-3.248161,0.397217 -6.75428,3.624023 -10.045845,3.152222c-3.186111,-0.456543 -5.223442,-4.050659 -7.550339,-5.180176c-2.403893,-1.166626 -7.285133,-0.932739 -8.33197,-2.497681c-1.013367,-1.514771 3.314827,-3.969116 4.18454,-5.502441c0.898384,-1.583862 -1.414581,-4.250732 1.00679,-5.380737c2.343887,-1.093628 7.517052,0.42627 10.621262,0.003418c3.206726,-0.437012 6.628685,-3.063965 9.945496,-2.675049c3.210541,0.376221 5.327911,3.071533 7.681236,4.155396c2.43129,1.119629 8.97995,1.449951 10.092979,2.974854c1.077385,1.476074 -5.51281,3.204712 -6.176804,4.754639c-0.685791,1.601318 1.821693,4.509888 -0.497742,5.711914z" id="path5580" stroke-dashoffset="0" stroke-miterlimit="4" stroke-linejoin="round" stroke-linecap="round" stroke-width="3" fill="#ce5c00"/>
    <path id="path5584" d="m301.704498,1495.835571c-3.518616,1.77002 -12.200836,0.151001 -17.128296,0.735962c-5.090515,0.604126 -10.585144,5.512817 -15.743469,4.795166c-4.993256,-0.694824 -8.186005,-6.162109 -11.832672,-7.880371c-3.767288,-1.774902 -11.417145,-1.419067 -13.057724,-3.799438c-1.588104,-2.304443 5.195053,-6.037964 6.557861,-8.370483c1.40799,-2.409668 -2.216873,-6.466553 1.577881,-8.185425c3.673355,-1.663818 11.780563,0.648438 16.645218,0.004883c5.025635,-0.664673 10.388275,-4.660767 15.586243,-4.069336c5.031464,0.57251 8.349884,4.672729 12.037933,6.321533c3.809967,1.703247 14.072815,2.205688 15.817139,4.525513c1.688446,2.245483 -8.639526,4.875 -9.679932,7.23291c-1.07489,2.435791 2.854919,6.860474 -0.780182,8.689087z" stroke-dashoffset="0" stroke-miterlimit="4" stroke-linejoin="round" stroke-linecap="round" stroke-width="3" fill="#ce5c00"/>
    <path d="m197.639862,1482.879883c-2.694626,1.694336 -9.34375,0.144531 -13.11731,0.704346c-3.898499,0.578247 -8.106461,5.276733 -12.056793,4.589722c-3.823898,-0.664917 -6.269043,-5.898071 -9.061737,-7.542603c-2.885101,-1.698975 -8.743561,-1.358276 -9.999954,-3.636841c-1.216217,-2.205811 3.9785,-5.779419 5.022186,-8.011963c1.078201,-2.306519 -1.697754,-6.189697 1.208435,-7.834839c2.81308,-1.592529 9.02179,0.620483 12.747284,0.004639c3.84874,-0.63623 7.955597,-4.46106 11.93634,-3.894897c3.853226,0.547852 6.394562,4.472412 9.218964,6.050537c2.917847,1.630371 10.77739,2.111328 12.113235,4.331787c1.293045,2.149414 -6.616348,4.666382 -7.413147,6.923096c-0.823181,2.331543 2.186356,6.56665 -0.597504,8.317017z" id="path5588" stroke-dashoffset="0" stroke-miterlimit="4" stroke-linejoin="round" stroke-linecap="round" stroke-width="3" fill="#f57900"/>
    <path id="path5596" d="m138.061447,1449.860229c-2.535156,1.681274 -9.708099,-0.050415 -13.29763,0.796265c-3.58963,0.846924 -9.83007,4.914795 -13.706551,4.435181c-3.876366,-0.479492 -6.101746,-4.567505 -9.272057,-5.956787c-3.170303,-1.389404 -9.34716,-1.568726 -10.810112,-3.632446c-1.462959,-2.063721 2.32431,-6.230591 3.133606,-8.390259c0.809288,-2.159546 -1.672905,-6.002197 0.843498,-7.751831c2.516312,-1.749512 9.897049,-1.333862 13.632927,-1.995239c3.735878,-0.661377 8.109505,-3.532593 12.025749,-3.168213c3.916229,0.36438 7.315125,3.941162 10.499428,5.279419c3.184311,1.338379 9.660446,2.52063 11.26355,4.574829c1.603104,2.054321 -2.703873,4.689575 -3.217163,6.897705c-0.51329,2.208008 1.439896,7.230103 -1.095245,8.911377z" stroke-dashoffset="0" stroke-miterlimit="4" stroke-linejoin="round" stroke-linecap="round" stroke-width="3" fill="#ad7fa8"/>
    <path d="m150.410736,1363.265137c-2.205215,1.146118 -6.416275,1.354736 -9.547592,1.75647c-3.131332,0.401855 -7.715866,2.328613 -10.798706,1.85791c-3.082741,-0.470581 -5.891258,-2.789185 -8.136292,-3.893677c-2.24511,-1.10437 -6.319588,-2.226685 -7.269798,-3.73877c-0.950195,-1.512085 2.10453,-3.841064 2.850044,-5.333496c0.745415,-1.492554 -0.113724,-4.40918 2.185684,-5.485229c2.299515,-1.07605 7.967422,-0.414429 10.956619,-0.89563c2.98912,-0.481201 5.884979,-2.151245 8.99324,-1.760376c3.108368,0.390869 5.90155,2.740845 8.136398,3.893677c2.234726,1.152832 8.091614,1.720581 9.104874,3.19458c1.013168,1.473999 -2.14035,3.9021 -2.977112,5.373535c-0.836761,1.471558 -1.292053,3.88501 -3.49736,5.031006z" id="path5602" stroke-dashoffset="0" stroke-miterlimit="4" stroke-linejoin="round" stroke-linecap="round" stroke-width="3" fill="#f57900"/>
    <path d="m237.556351,1398.982788c-2.027573,1.286255 -7.841095,-0.634033 -10.640289,0.05188c-2.799179,0.686035 -8.548279,4.367554 -11.615723,3.941528c-3.067551,-0.42627 -4.614822,-3.808105 -7.193054,-4.873657c-2.578247,-1.065308 -7.151581,-0.920166 -8.350662,-2.511353c-1.19899,-1.591309 1.582474,-5.314575 2.303131,-6.971313c0.720673,-1.656738 -1.371964,-4.686646 0.631851,-6.05835c2.003815,-1.371826 8.087158,-1.09436 11.070465,-1.550415c2.983292,-0.456177 6.337112,-2.640747 9.459824,-2.358154c3.122711,0.282593 6.173523,3.025635 8.767334,4.0271c2.593887,1.001343 7.553741,2.112061 8.932281,3.689087c1.378525,1.577026 -2.067703,3.388062 -2.410309,5.105957c-0.342621,1.717896 1.072739,6.221313 -0.954849,7.50769z" id="path7636" stroke-dashoffset="0" stroke-miterlimit="4" stroke-linejoin="round" stroke-linecap="round" stroke-width="3" fill="#fcaf3e"/>
   </g>
   <path id="path4397" d="m633.4245,1399.783691c0.028564,41.431152 -116.444763,75.022095 -260.131744,75.022095c-143.686966,0 -260.160278,-33.590942 -260.131805,-75.022095c-0.028473,-41.431152 116.444855,-75.021973 260.131805,-75.021973c143.686981,0 260.160309,33.59082 260.131744,75.021973z" filter="url(#filter4635)" stroke-dashoffset="0" stroke-miterlimit="4" stroke-linejoin="round" stroke-linecap="round" stroke-width="3" fill="#323232" opacity="0.364445"/>
   <path id="path4639" d="m264.666962,169.964767c0,84.030029 -76.344116,152.149826 -170.519424,152.149826c-94.175267,0 -170.519424,-68.119797 -170.519424,-152.149826c0,-84.030029 76.344157,-152.149828 170.519424,-152.149828c94.175308,0 170.519424,68.119799 170.519424,152.149828z" clip-path="url(#clipPath5671)" stroke-dashoffset="0" stroke-miterlimit="4" stroke-linejoin="round" stroke-linecap="round" stroke-width="8.398963" stroke="#fcaf3e" fill="url(#radialGradient4647)"/>
   <path d="m1876.712524,107.992279c-49.627686,0 -92.352417,11.599648 -111.387817,28.225342c-4.367065,-0.286652 -8.807373,-0.444946 -13.319214,-0.444901c-59.222534,0 -107.295654,25.781784 -107.295654,57.546753c0,27.799973 36.822998,51.012115 85.71228,56.374756c15.189575,30.063461 83.14917,52.761154 164.624512,52.761185c92.630005,0 167.813965,-29.333069 167.813965,-65.479416l-0.120605,-1.052597c30.008301,-8.976456 49.63623,-23.823242 49.63623,-40.618088l-0.431396,-4.264709c-5.218018,-25.775467 -55.208008,-45.329971 -115.931152,-45.349426c-11.744019,-21.812347 -60.771118,-37.698944 -119.301147,-37.698898z" id="path4984" clip-path="url(#clipPath5495)" filter="url(#filter5575)" stroke-dashoffset="0" stroke-miterlimit="4" stroke-linejoin="round" stroke-linecap="round" stroke-width="5" fill="#fdfdfd"/>
   <path id="path5187" d="m832.015747,208.001892c75.06134,0 139.681763,14.582428 168.472412,35.483307c6.60498,-0.360367 13.321106,-0.559372 20.145081,-0.559311c89.573181,0 162.283264,32.411392 162.283264,72.344498c0,34.948517 -55.69458,64.129517 -129.63855,70.871124c-22.973999,37.794037 -125.761902,66.328308 -248.992004,66.328339c-140.101746,0 -253.816101,-36.875824 -253.816101,-82.316986l0.182129,-1.323242c-45.38681,-11.284729 -75.073853,-29.949219 -75.073853,-51.062775l0.652313,-5.361328c7.891907,-32.403442 83.501434,-56.986267 175.344147,-57.010712c17.762695,-27.421234 91.915588,-47.39296 180.441162,-47.392914z" clip-path="url(#clipPath5381)" filter="url(#filter5445)" stroke-dashoffset="0" stroke-miterlimit="4" stroke-linejoin="round" stroke-linecap="round" stroke-width="5" fill="#fdfdfd"/>
   <g transform="matrix(-0.21546496363077164,0,0,0.5408381784282446,-347.0955295646697,394.4602201917821) " id="g5828" display="inline" fill="#009800" opacity="0.697778">
    <path d="m-3418.017578,2091.647461c-12.955811,-57.300415 -65.418457,-104.149292 -110.755127,-139.778198c58.284424,5.963745 98.620361,69.925293 124.037842,117.933716c2.572754,8.976318 -2.445068,22.197754 -13.282715,21.844482z" id="path5830" stroke-dashoffset="0" stroke-miterlimit="4" stroke-linejoin="round" stroke-linecap="round" stroke-width="5" fill="#009800"/>
    <path d="m-3343.437012,2082.970703c16.922363,-30.073486 -35.47998,-114.769409 -26.255859,-150.65979c29.290039,54.484131 47.240967,92.356079 42.014648,140.913208c-3.416748,5.674561 -10.499023,6.567627 -15.758789,9.746582z" id="path5832" stroke-dashoffset="0" stroke-miterlimit="4" stroke-linejoin="round" stroke-linecap="round" stroke-width="5" fill="#009800"/>
    <path d="m-3268.924805,2080.605957c25.249268,-47.250854 55.258545,-94.921387 108.53833,-113.318481c-29.527588,20.459229 -63.095703,41.023926 -76.157715,76.460205c-6.845215,14.8302 -14.696045,32.876587 -32.380615,36.858276z" id="path5834" stroke-dashoffset="0" stroke-miterlimit="4" stroke-linejoin="round" stroke-linecap="round" stroke-width="5" fill="#009800"/>
    <path d="m-3160.151855,2089.564209c20.26416,-9.159912 40.634033,-61.067505 69.030518,-84.929199c-31.307129,78.414063 -42.603516,86.36792 -69.030518,84.929199z" id="path5836" stroke-dashoffset="0" stroke-miterlimit="4" stroke-linejoin="round" stroke-linecap="round" stroke-width="5" fill="#009800"/>
    <path d="m-3303.210449,2072.034668c12.679932,-15.090576 17.682129,-39.51062 39.270264,-44.824585c-11.711182,15.824341 -17.50708,39.779907 -39.270264,44.824585z" id="path5838" stroke-dashoffset="0" stroke-miterlimit="4" stroke-linejoin="round" stroke-linecap="round" stroke-width="5" fill="#009800"/>
    <path d="m-3382.007568,2046.729858c-10.250244,-21.322998 -21.087646,-42.660889 -36.165527,-61.046875c42.01709,18.971558 55.649658,50.30188 36.165527,61.046875z" id="path5840" stroke-dashoffset="0" stroke-miterlimit="4" stroke-linejoin="round" stroke-linecap="round" stroke-width="5" fill="#009800"/>
    <path d="m-3188.619141,2043.354858c18.253418,-21.315552 39.844238,-40.695557 65.959717,-51.724487c-22.991943,11.943115 -42.077393,44.868164 -65.959717,51.724487z" id="path5842" stroke-dashoffset="0" stroke-miterlimit="4" stroke-linejoin="round" stroke-linecap="round" stroke-width="5" fill="#009800"/>
   </g>
   <g id="g5844" transform="matrix(-0.2910228171801567,0,0,0.38057516890383364,828.8513774917574,609.3035897553319) " display="inline" fill="#008c00" opacity="0.697778">
    <path id="path5846" d="m-2516.395264,2243.95459c-12.955811,-57.300537 -65.418457,-104.149414 -110.755127,-139.77832c58.284424,5.963867 98.620361,69.925293 124.037842,117.933594c2.572754,8.976318 -2.445068,22.197754 -13.282715,21.844727z" stroke-dashoffset="0" stroke-miterlimit="4" stroke-linejoin="round" stroke-linecap="round" stroke-width="5" fill="#008c00"/>
    <path id="path5848" d="m-2441.814697,2235.277588c16.922363,-30.073486 -35.47998,-114.769287 -26.255859,-150.659668c29.289795,54.484131 47.240967,92.356201 42.014648,140.913086c-3.416748,5.674561 -10.498779,6.567627 -15.758789,9.746582z" stroke-dashoffset="0" stroke-miterlimit="4" stroke-linejoin="round" stroke-linecap="round" stroke-width="5" fill="#008c00"/>
    <path id="path5850" d="m-2367.30249,2232.913086c25.249268,-47.250977 55.258545,-94.921387 108.53833,-113.318604c-29.527588,20.459229 -63.095703,41.023926 -76.157715,76.460205c-6.845215,14.830078 -14.696045,32.876465 -32.380615,36.858398z" stroke-dashoffset="0" stroke-miterlimit="4" stroke-linejoin="round" stroke-linecap="round" stroke-width="5" fill="#008c00"/>
    <path id="path5852" d="m-2258.529541,2241.871094c20.26416,-9.159668 40.634033,-61.067383 69.030518,-84.929199c-31.307129,78.414063 -42.603516,86.36792 -69.030518,84.929199z" stroke-dashoffset="0" stroke-miterlimit="4" stroke-linejoin="round" stroke-linecap="round" stroke-width="5" fill="#008c00"/>
    <path id="path5854" d="m-2401.588135,2224.341553c12.679932,-15.090576 17.682129,-39.510498 39.270264,-44.824463c-11.710938,15.824219 -17.50708,39.779785 -39.270264,44.824463z" stroke-dashoffset="0" stroke-miterlimit="4" stroke-linejoin="round" stroke-linecap="round" stroke-width="5" fill="#008c00"/>
    <path id="path5856" d="m-2480.385254,2199.036865c-10.250244,-21.322998 -21.087646,-42.660889 -36.165527,-61.046875c42.01709,18.971436 55.649414,50.302002 36.165527,61.046875z" stroke-dashoffset="0" stroke-miterlimit="4" stroke-linejoin="round" stroke-linecap="round" stroke-width="5" fill="#008c00"/>
    <path id="path5858" d="m-2286.99707,2195.661865c18.253662,-21.315674 39.844482,-40.695557 65.959961,-51.724365c-22.991943,11.942871 -42.077393,44.868164 -65.959961,51.724365z" stroke-dashoffset="0" stroke-miterlimit="4" stroke-linejoin="round" stroke-linecap="round" stroke-width="5" fill="#008c00"/>
   </g>
   <g transform="matrix(0.333524173738575,0,0,0.46687062061212065,1366.4649146892043,615.5134202806488) " id="g5860" display="inline" fill="#008c00" opacity="0.697778">
    <path d="m2298.196533,2148.949707c-12.955811,-57.300293 -65.418457,-104.149292 -110.755127,-139.778198c58.284424,5.963745 98.620361,69.925415 124.037842,117.933716c2.572754,8.976318 -2.445068,22.197754 -13.282715,21.844482z" id="path5862" stroke-dashoffset="0" stroke-miterlimit="4" stroke-linejoin="round" stroke-linecap="round" stroke-width="5" fill="#008c00"/>
    <path d="m2372.7771,2140.272949c16.922363,-30.073486 -35.47998,-114.769409 -26.255859,-150.65979c29.289795,54.484131 47.240967,92.356079 42.014648,140.913208c-3.416748,5.674561 -10.498779,6.567627 -15.758789,9.746582z" id="path5864" stroke-dashoffset="0" stroke-miterlimit="4" stroke-linejoin="round" stroke-linecap="round" stroke-width="5" fill="#008c00"/>
    <path d="m2447.289307,2137.908203c25.249268,-47.250732 55.258545,-94.921387 108.53833,-113.318481c-29.527588,20.459229 -63.095703,41.024048 -76.157715,76.460327c-6.845215,14.830078 -14.696045,32.876465 -32.380615,36.858154z" id="path5866" stroke-dashoffset="0" stroke-miterlimit="4" stroke-linejoin="round" stroke-linecap="round" stroke-width="5" fill="#008c00"/>
    <path d="m2556.062256,2146.866455c20.26416,-9.159912 40.634033,-61.067383 69.030518,-84.929199c-31.307129,78.414063 -42.603516,86.36792 -69.030518,84.929199z" id="path5868" stroke-dashoffset="0" stroke-miterlimit="4" stroke-linejoin="round" stroke-linecap="round" stroke-width="5" fill="#008c00"/>
    <path d="m2413.003662,2129.336914c12.679932,-15.090576 17.682129,-39.510498 39.270264,-44.824463c-11.710938,15.824219 -17.50708,39.779785 -39.270264,44.824463z" id="path5870" stroke-dashoffset="0" stroke-miterlimit="4" stroke-linejoin="round" stroke-linecap="round" stroke-width="5" fill="#008c00"/>
    <path d="m2334.206543,2104.032227c-10.250244,-21.322998 -21.087646,-42.660889 -36.165527,-61.046997c42.01709,18.971558 55.649414,50.30188 36.165527,61.046997z" id="path5872" stroke-dashoffset="0" stroke-miterlimit="4" stroke-linejoin="round" stroke-linecap="round" stroke-width="5" fill="#008c00"/>
    <path d="m2527.594727,2100.657227c18.253662,-21.315674 39.844482,-40.695557 65.959961,-51.724609c-22.991943,11.943115 -42.077393,44.868164 -65.959961,51.724609z" id="path5874" stroke-dashoffset="0" stroke-miterlimit="4" stroke-linejoin="round" stroke-linecap="round" stroke-width="5" fill="#008c00"/>
   </g>
   <g transform="matrix(-0.19657544909391403,0,0,0.20798416825568677,1149.3233723758192,767.4284769924096) " id="g5876" display="inline" fill="#008c00" opacity="0.697778">
    <path d="m-3751.723145,2670.476563c-12.955811,-57.300293 -65.418457,-104.14917 -110.755127,-139.778076c58.284424,5.963623 98.620361,69.925293 124.037842,117.933838c2.572754,8.976074 -2.445068,22.19751 -13.282715,21.844238z" id="path5878" stroke-dashoffset="0" stroke-miterlimit="4" stroke-linejoin="round" stroke-linecap="round" stroke-width="5" fill="#008c00"/>
    <path d="m-3677.142578,2661.799805c16.922363,-30.073242 -35.47998,-114.769287 -26.255859,-150.659668c29.290039,54.484131 47.240967,92.355957 42.014648,140.913086c-3.416748,5.674805 -10.499023,6.567627 -15.758789,9.746582z" id="path5880" stroke-dashoffset="0" stroke-miterlimit="4" stroke-linejoin="round" stroke-linecap="round" stroke-width="5" fill="#008c00"/>
    <path d="m-3602.630371,2659.435059c25.249268,-47.250732 55.258545,-94.921387 108.53833,-113.318359c-29.527588,20.459229 -63.095703,41.023926 -76.157715,76.460205c-6.845215,14.830078 -14.696045,32.876465 -32.380615,36.858154z" id="path5882" stroke-dashoffset="0" stroke-miterlimit="4" stroke-linejoin="round" stroke-linecap="round" stroke-width="5" fill="#008c00"/>
    <path d="m-3493.857422,2668.393311c20.26416,-9.159912 40.634033,-61.067383 69.030518,-84.928955c-31.307129,78.413818 -42.603516,86.367676 -69.030518,84.928955z" id="path5884" stroke-dashoffset="0" stroke-miterlimit="4" stroke-linejoin="round" stroke-linecap="round" stroke-width="5" fill="#008c00"/>
    <path d="m-3636.916016,2650.86377c12.679932,-15.090332 17.682129,-39.510498 39.270264,-44.824463c-11.711182,15.824463 -17.50708,39.779785 -39.270264,44.824463z" id="path5886" stroke-dashoffset="0" stroke-miterlimit="4" stroke-linejoin="round" stroke-linecap="round" stroke-width="5" fill="#008c00"/>
    <path d="m-3715.713135,2625.559082c-10.250244,-21.322998 -21.087646,-42.660889 -36.165527,-61.046875c42.01709,18.97168 55.649658,50.301758 36.165527,61.046875z" id="path5888" stroke-dashoffset="0" stroke-miterlimit="4" stroke-linejoin="round" stroke-linecap="round" stroke-width="5" fill="#008c00"/>
    <path d="m-3522.324707,2622.184082c18.253418,-21.31543 39.844238,-40.695557 65.959717,-51.724609c-22.991943,11.943359 -42.077393,44.868164 -65.959717,51.724609z" id="path5890" stroke-dashoffset="0" stroke-miterlimit="4" stroke-linejoin="round" stroke-linecap="round" stroke-width="5" fill="#008c00"/>
   </g>
   <g id="g5892" transform="matrix(0.17296360707235336,0,0,0.15867239822388887,1247.9301164249869,588.8410788445449) " display="inline" fill="#008c00" opacity="0.697778">
    <path id="path5894" d="m4380.794922,2962.766113c-12.956055,-57.300293 -65.418457,-104.14917 -110.755371,-139.778076c58.284668,5.963623 98.620605,69.925293 124.038086,117.933838c2.572754,8.976074 -2.445313,22.19751 -13.282715,21.844238z" stroke-dashoffset="0" stroke-miterlimit="4" stroke-linejoin="round" stroke-linecap="round" stroke-width="5" fill="#008c00"/>
    <path id="path5896" d="m4455.375488,2954.089355c16.922363,-30.073242 -35.47998,-114.769287 -26.255859,-150.659668c29.290039,54.484131 47.241211,92.355957 42.014648,140.913086c-3.416992,5.674805 -10.499023,6.567627 -15.758789,9.746582z" stroke-dashoffset="0" stroke-miterlimit="4" stroke-linejoin="round" stroke-linecap="round" stroke-width="5" fill="#008c00"/>
    <path id="path5898" d="m4529.887695,2951.724609c25.249512,-47.250732 55.258789,-94.921387 108.538574,-113.318359c-29.527832,20.459229 -63.095703,41.023926 -76.158203,76.460205c-6.844727,14.830078 -14.695801,32.876465 -32.380371,36.858154z" stroke-dashoffset="0" stroke-miterlimit="4" stroke-linejoin="round" stroke-linecap="round" stroke-width="5" fill="#008c00"/>
    <path id="path5900" d="m4638.660645,2960.682861c20.26416,-9.159912 40.633789,-61.067383 69.030762,-84.928955c-31.307617,78.413818 -42.604004,86.367676 -69.030762,84.928955z" stroke-dashoffset="0" stroke-miterlimit="4" stroke-linejoin="round" stroke-linecap="round" stroke-width="5" fill="#008c00"/>
    <path id="path5902" d="m4495.602051,2943.15332c12.680176,-15.090332 17.682129,-39.510498 39.27002,-44.824463c-11.710938,15.824463 -17.506836,39.779785 -39.27002,44.824463z" stroke-dashoffset="0" stroke-miterlimit="4" stroke-linejoin="round" stroke-linecap="round" stroke-width="5" fill="#008c00"/>
    <path id="path5904" d="m4416.804688,2917.848633c-10.25,-21.322998 -21.087402,-42.660889 -36.165039,-61.046875c42.01709,18.97168 55.649414,50.301758 36.165039,61.046875z" stroke-dashoffset="0" stroke-miterlimit="4" stroke-linejoin="round" stroke-linecap="round" stroke-width="5" fill="#008c00"/>
    <path id="path5906" d="m4610.193359,2914.473633c18.253418,-21.31543 39.844238,-40.695557 65.959961,-51.724609c-22.992188,11.943359 -42.077637,44.868164 -65.959961,51.724609z" stroke-dashoffset="0" stroke-miterlimit="4" stroke-linejoin="round" stroke-linecap="round" stroke-width="5" fill="#008c00"/>
   </g>
   <g id="g5811" transform="matrix(0.39491504483385087,0,0,0.4791985145042837,-216.01714226706792,407.7872948961924) " display="inline" fill="#009800">
    <path id="path5727" d="m1949.440674,2138.170898c-12.955933,-57.300293 -65.418335,-104.149292 -110.755249,-139.778198c58.284668,5.963745 98.620483,69.925415 124.038086,117.933716c2.572632,8.976318 -2.44519,22.197754 -13.282837,21.844482z" stroke-dashoffset="0" stroke-miterlimit="4" stroke-linejoin="round" stroke-linecap="round" stroke-width="5" fill="#009800"/>
    <path id="path5729" d="m2024.021362,2129.494141c16.922241,-30.073486 -35.47998,-114.769409 -26.255859,-150.65979c29.289795,54.484131 47.240967,92.356079 42.014404,140.913208c-3.416626,5.674561 -10.498779,6.567627 -15.758545,9.746582z" stroke-dashoffset="0" stroke-miterlimit="4" stroke-linejoin="round" stroke-linecap="round" stroke-width="5" fill="#009800"/>
    <path id="path5731" d="m2098.533447,2127.129395c25.249268,-47.250732 55.258545,-94.921387 108.53833,-113.318481c-29.527588,20.459229 -63.095703,41.024048 -76.157715,76.460327c-6.845215,14.830078 -14.696045,32.876465 -32.380615,36.858154z" stroke-dashoffset="0" stroke-miterlimit="4" stroke-linejoin="round" stroke-linecap="round" stroke-width="5" fill="#009800"/>
    <path id="path5733" d="m2207.306396,2136.087646c20.26416,-9.159912 40.634033,-61.067383 69.030518,-84.929199c-31.307129,78.414063 -42.603516,86.36792 -69.030518,84.929199z" stroke-dashoffset="0" stroke-miterlimit="4" stroke-linejoin="round" stroke-linecap="round" stroke-width="5" fill="#009800"/>
    <path id="path5735" d="m2064.247803,2118.558105c12.679932,-15.090576 17.682129,-39.510498 39.270264,-44.824463c-11.710938,15.824219 -17.50708,39.779785 -39.270264,44.824463z" stroke-dashoffset="0" stroke-miterlimit="4" stroke-linejoin="round" stroke-linecap="round" stroke-width="5" fill="#009800"/>
    <path id="path5737" d="m1985.450562,2093.253418c-10.25,-21.322998 -21.087524,-42.660889 -36.165405,-61.046997c42.01709,18.971558 55.649536,50.30188 36.165405,61.046997z" stroke-dashoffset="0" stroke-miterlimit="4" stroke-linejoin="round" stroke-linecap="round" stroke-width="5" fill="#009800"/>
    <path id="path5753" d="m2178.838867,2089.878418c18.253662,-21.315674 39.844482,-40.695557 65.959961,-51.724609c-22.991943,11.943115 -42.077393,44.868164 -65.959961,51.724609z" stroke-dashoffset="0" stroke-miterlimit="4" stroke-linejoin="round" stroke-linecap="round" stroke-width="5" fill="#009800"/>
   </g>
   <g id="g7741" transform="matrix(0.14038883617916106,0.019758342358405113,-0.004682527129240321,0.06702486375664055,896.666218014905,603.4312986352204) ">
    <path d="m6555.75293,3997.095459c-8.370605,4.675293 -29.026367,0.398682 -40.749023,1.943604c-12.11084,1.595703 -25.182617,14.560791 -37.45459,12.665283c-11.879395,-1.834961 -19.475098,-16.275635 -28.150391,-20.813721c-8.962891,-4.687988 -27.162109,-3.748047 -31.06543,-10.035645c-3.77832,-6.086426 12.359375,-15.947754 15.601563,-22.108398c3.349121,-6.364502 -5.273926,-17.079834 3.754395,-21.619629c8.73877,-4.394531 28.025879,1.712646 39.599121,0.012939c11.956543,-1.755615 24.714355,-12.310059 37.080566,-10.748047c11.970215,1.511963 19.864746,12.341797 28.63916,16.696533c9.064453,4.498779 33.47998,5.825928 37.630371,11.952881c4.016602,5.931152 -20.554199,12.876465 -23.029785,19.104004c-2.556641,6.433838 6.791992,18.120361 -1.855957,22.950195z" id="path7685" stroke-dashoffset="0" stroke-miterlimit="4" stroke-linejoin="round" stroke-linecap="round" stroke-width="3" fill="#ce5c00"/>
    <path id="path7689" d="m6666.30957,3931.176514c-8.544922,4.579346 -33.044922,-2.257324 -44.841309,0.184814c-11.796387,2.442139 -36.024902,15.548828 -48.95166,14.031738c-12.927246,-1.51709 -19.448242,-13.556641 -30.313477,-17.349854c-10.864746,-3.792969 -30.138184,-3.276367 -35.191406,-8.941162c-5.053223,-5.664795 6.668945,-18.920166 9.706055,-24.818359c3.037109,-5.898193 -5.782227,-16.684326 2.662598,-21.567871c8.444336,-4.883545 34.080566,-3.895752 46.653809,-5.519531c12.572754,-1.624023 26.706055,-9.401123 39.866211,-8.39502c13.159668,1.005859 26.016602,10.77124 36.947266,14.336182c10.932129,3.565186 31.833496,7.519531 37.643066,13.133789c5.80957,5.614502 -8.713867,12.061768 -10.158203,18.177734c-1.443359,6.115479 4.521484,22.148193 -4.022949,26.727539z" stroke-dashoffset="0" stroke-miterlimit="4" stroke-linejoin="round" stroke-linecap="round" stroke-width="3" fill="#fcc916"/>
    <path id="path7691" d="m6269.929199,4095.443115c-9.59375,6.694092 -36.739258,-0.200928 -50.323242,3.170654c-13.584473,3.371582 -37.200684,19.568359 -51.870605,17.65918c-14.669922,-1.909668 -23.091309,-18.186523 -35.089355,-23.718018c-11.998047,-5.531738 -35.373535,-6.24585 -40.909668,-14.462891c-5.536133,-8.217041 8.795898,-24.80835 11.858398,-33.406738c3.063477,-8.598389 -6.330566,-23.898438 3.192383,-30.864502c9.522949,-6.966553 37.454102,-5.311768 51.592773,-7.944824c14.137695,-2.633301 30.688965,-14.06543 45.509766,-12.614502c14.820801,1.450684 27.683594,15.691895 39.734375,21.020752c12.049805,5.329102 36.558594,10.035889 42.625488,18.215332c6.066895,8.178955 -10.232422,18.671387 -12.175293,27.463379c-1.942871,8.791992 5.449219,28.788086 -4.14502,35.482178z" stroke-dashoffset="0" stroke-miterlimit="4" stroke-linejoin="round" stroke-linecap="round" stroke-width="3" fill="#ad7fa8"/>
    <path d="m6469.089844,4151.810059c-10.758789,5.882324 -31.302734,6.953613 -46.579102,9.016113c-15.276367,2.062012 -37.642578,11.95166 -52.682617,9.536133c-15.039063,-2.416016 -28.740234,-14.316895 -39.693359,-19.98584c-10.952637,-5.668457 -30.830078,-11.428711 -35.46582,-19.19043c-4.63623,-7.761719 10.266602,-19.715332 13.903809,-27.375977c3.636719,-7.661133 -0.554688,-22.631592 10.663086,-28.154785c11.218262,-5.523193 38.869629,-2.127197 53.452637,-4.597168c14.583008,-2.470215 28.710449,-11.041504 43.874512,-9.0354c15.164063,2.005859 28.791016,14.067871 39.693359,19.985352c10.902344,5.917236 39.475586,8.831055 44.418945,16.396729c4.943359,7.566406 -10.441895,20.029297 -14.523926,27.582031c-4.082031,7.553223 -6.303223,19.940918 -17.061523,25.823242z" id="path7687" stroke-dashoffset="0" stroke-miterlimit="4" stroke-linejoin="round" stroke-linecap="round" stroke-width="3" fill="#f57900"/>
    <path id="path7693" d="m6308.152344,4411.115234c-13.694824,8.501465 -47.485352,0.725098 -66.663086,3.53418c-19.811523,2.901855 -41.196289,26.479004 -61.271973,23.031738c-19.433594,-3.336914 -31.859375,-29.597168 -46.051758,-37.849121c-14.662109,-8.525391 -44.43457,-6.815918 -50.819824,-18.25c-6.180664,-11.067871 20.219238,-29.000977 25.522949,-40.204102c5.479492,-11.57373 -8.62793,-31.059082 6.140625,-39.314941c14.296875,-7.991211 45.849609,3.114258 64.782227,0.023926c19.55957,-3.192871 40.430176,-22.385742 60.660645,-19.54541c19.582031,2.749512 32.49707,22.443359 46.850586,30.362305c14.828613,8.181152 54.770508,10.594238 61.55957,21.736328c6.571289,10.785645 -33.624512,23.415527 -37.673828,34.740234c-4.183105,11.699707 11.11084,32.95166 -3.036133,41.734863z" stroke-dashoffset="0" stroke-miterlimit="4" stroke-linejoin="round" stroke-linecap="round" stroke-width="3" fill="#ce5c00"/>
    <path d="m6515.770508,4289.37793c-11.327148,6.693848 -43.375488,-0.201172 -59.413574,3.17041c-16.037598,3.371582 -43.919434,19.568359 -61.239258,17.658691c-17.319824,-1.90918 -27.262207,-18.186035 -41.427246,-23.717773c-14.165039,-5.531738 -41.762695,-6.245605 -48.298828,-14.462891c-6.536621,-8.216797 10.384277,-24.808105 14.000977,-33.406738c3.615723,-8.598145 -7.475098,-23.897949 3.768066,-30.864258c11.243164,-6.966797 44.219727,-5.312012 60.911621,-7.944824c16.691406,-2.633301 36.232422,-14.06543 53.72998,-12.614746c17.497559,1.451172 32.683594,15.691895 46.911133,21.020996c14.226563,5.329102 43.162109,10.036133 50.324707,18.215332c7.162598,8.179199 -12.080566,18.671387 -14.374023,27.463379c-2.293945,8.791992 6.433105,28.788086 -4.893555,35.482422z" id="path7695" stroke-dashoffset="0" stroke-miterlimit="4" stroke-linejoin="round" stroke-linecap="round" stroke-width="3" fill="#3465a4"/>
    <path d="m6708.282715,4386.961914c-13.561035,7.400391 -52.443848,-3.647461 -71.165527,0.299316c-18.722168,3.946289 -57.173828,25.126953 -77.689941,22.675293c-20.51709,-2.45166 -30.865723,-21.907715 -48.109863,-28.037598c-17.244141,-6.129883 -47.832031,-5.294922 -55.852051,-14.449219c-8.019043,-9.154297 10.583984,-30.575195 15.404297,-40.106445c4.820313,-9.531738 -9.17627,-26.962402 4.226074,-34.854492c13.402344,-7.89209 54.089355,-6.29541 74.042969,-8.919434c19.953125,-2.624512 42.384766,-15.192383 63.270508,-13.566895c20.885742,1.625977 41.290527,17.406738 58.638672,23.167969c17.349121,5.76123 50.522461,12.151367 59.742188,21.224609c9.220215,9.072754 -13.829102,19.491699 -16.120605,29.375c-2.291504,9.882813 7.174805,35.791992 -6.386719,43.191895z" id="path7697" stroke-dashoffset="0" stroke-miterlimit="4" stroke-linejoin="round" stroke-linecap="round" stroke-width="3" fill="#fcaf3e"/>
    <path d="m6994.145996,4373.545898c-16.25293,10.447266 -56.35498,0.891113 -79.115234,4.342773c-23.512207,3.565918 -48.891602,32.539063 -72.717285,28.302734c-23.063965,-4.100098 -37.810547,-36.370117 -54.654297,-46.51123c-17.400879,-10.476074 -52.734863,-8.375488 -60.312988,-22.42627c-7.335449,-13.600586 23.995605,-35.637695 30.290527,-49.404785c6.50293,-14.222168 -10.239746,-38.166992 7.287598,-48.312012c16.967285,-9.820313 54.414063,3.82666 76.883789,0.029297c23.212891,-3.92334 47.982422,-27.509277 71.991699,-24.018555c23.239746,3.378418 38.567383,27.57959 55.602051,37.311035c17.598633,10.053223 65.001953,13.018555 73.058594,26.710449c7.798828,13.253906 -39.905273,28.774414 -44.710938,42.690918c-4.964844,14.376953 13.186035,40.492676 -3.603516,51.285645z" id="path7699" stroke-dashoffset="0" stroke-miterlimit="4" stroke-linejoin="round" stroke-linecap="round" stroke-width="3" fill="#cc0000"/>
    <path id="path7701" d="m6758.856445,4665.645508c-15.80957,8.716797 -61.140137,-4.296387 -82.966797,0.352539c-21.826172,4.648438 -66.654297,29.59668 -90.572266,26.708984c-23.918945,-2.887695 -35.983887,-25.805176 -56.087402,-33.025391c-20.103516,-7.220215 -55.763672,-6.236328 -65.113281,-17.019043c-9.349121,-10.783203 12.338867,-36.014648 17.958008,-47.241699c5.619629,-11.227051 -10.697754,-31.758789 4.927246,-41.054688c15.624512,-9.29541 63.058594,-7.415039 86.320801,-10.506348c23.262207,-3.091309 49.413086,-17.894531 73.762207,-15.97998c24.349121,1.915039 48.137207,20.503418 68.362305,27.289551c20.225586,6.786133 58.899902,14.312988 69.648926,25c10.749023,10.687012 -16.123047,22.959473 -18.794434,34.600586c-2.671387,11.641113 8.364746,42.15918 -7.445313,50.875488z" stroke-dashoffset="0" stroke-miterlimit="4" stroke-linejoin="round" stroke-linecap="round" stroke-width="3" fill="#fcaf3e"/>
    <path id="path7703" d="m7294.775879,4572.918945c-14.969727,9.40332 -57.327637,-0.282715 -78.524414,4.453613c-21.196777,4.736328 -58.047363,27.489746 -80.938965,24.807129c-22.891113,-2.682129 -36.031738,-25.547363 -54.753418,-33.318359c-18.721191,-7.770996 -55.196777,-8.773926 -63.835449,-20.317383c-8.638672,-11.542969 13.725098,-34.850098 18.504395,-46.929199c4.779297,-12.078613 -9.878906,-33.571777 4.980957,-43.35791c14.859863,-9.786133 58.443359,-7.461914 80.505371,-11.160645c22.061035,-3.699219 47.887207,-19.758789 71.013672,-17.720703c23.126465,2.038086 43.197266,22.043945 62.000977,29.529785c18.803223,7.486328 57.046387,14.098633 66.513184,25.588379c9.466797,11.489746 -15.966797,26.229492 -18.998535,38.580078c-3.03125,12.351074 8.50293,40.440918 -6.467773,49.845215z" stroke-dashoffset="0" stroke-miterlimit="4" stroke-linejoin="round" stroke-linecap="round" stroke-width="3" fill="#ad7fa8"/>
    <path d="m7097.131348,4702.459961c-18.323242,10.306641 -53.313477,12.183594 -79.331543,15.796875c-26.01709,3.612793 -64.110352,20.940918 -89.725098,16.708008c-25.614746,-4.23291 -48.950195,-25.083984 -67.604492,-35.016113c-18.653809,-9.932129 -52.508301,-20.024902 -60.403809,-33.623535c-7.89502,-13.599121 17.486328,-34.542969 23.680176,-47.965332c6.193848,-13.422363 -0.944824,-39.651855 18.160645,-49.329102c19.106445,-9.676758 66.200684,-3.727051 91.038086,-8.054688c24.837402,-4.327637 48.897949,-19.345703 74.725098,-15.830566c25.82666,3.514648 49.035645,24.647949 67.604004,35.015625c18.569336,10.367676 67.23291,15.473145 75.652344,28.729004c8.418945,13.255859 -17.783691,35.092285 -24.736328,48.325684c-6.952637,13.233887 -10.736328,34.937988 -29.059082,45.244141z" id="path7705" stroke-dashoffset="0" stroke-miterlimit="4" stroke-linejoin="round" stroke-linecap="round" stroke-width="3" fill="#f57900"/>
    <path d="m6737.509766,4093.034668c-13.387695,6.999023 -51.775391,-3.449951 -70.258301,0.282715c-18.48291,3.732422 -56.444336,23.764648 -76.699219,21.446289c-20.254395,-2.318848 -30.47168,-20.720459 -47.495605,-26.517822c-17.024414,-5.797363 -47.22168,-5.007568 -55.13916,-13.665527c-7.91748,-8.657959 10.448242,-28.91748 15.20752,-37.932373c4.758789,-9.014648 -9.05957,-25.500488 4.171875,-32.9646c13.231445,-7.463867 53.399414,-5.953857 73.098145,-8.436035c19.699219,-2.482178 41.844238,-14.368408 62.463867,-12.831055c20.619141,1.537842 40.763672,16.463135 57.891113,21.911865c17.127441,5.448975 49.877441,11.492676 58.97998,20.07373c9.102051,8.581055 -13.65332,18.435059 -15.915527,27.782471c-2.262207,9.347168 7.083008,33.851318 -6.304688,40.850342z" id="path7707" stroke-dashoffset="0" stroke-miterlimit="4" stroke-linejoin="round" stroke-linecap="round" stroke-width="3" fill="#fcc916"/>
    <path id="path7709" d="m6216.177246,3902.910645c-10.953125,5.972656 -37.980957,0.509521 -53.320313,2.482666c-15.84668,2.038574 -32.951172,18.601563 -49.009277,16.179688c-15.543457,-2.343994 -25.48291,-20.791504 -36.834961,-26.588623c-11.727539,-5.989014 -35.541504,-4.788086 -40.648438,-12.820313c-4.943848,-7.775146 16.171875,-20.373047 20.414551,-28.24292c4.383301,-8.130371 -6.901367,-21.818848 4.912109,-27.618652c11.435059,-5.61377 36.672363,2.187744 51.815918,0.016846c15.64502,-2.24292 32.338867,-15.72583 48.52002,-13.730469c15.663086,1.931396 25.993164,15.766357 37.474121,21.329346c11.860352,5.74707 43.809082,7.442383 49.239258,15.269531c5.255371,7.57666 -26.89502,16.449219 -30.134277,24.404785c-3.345703,8.218994 8.887695,23.148193 -2.428711,29.318115z" stroke-dashoffset="0" stroke-miterlimit="4" stroke-linejoin="round" stroke-linecap="round" stroke-width="3" fill="#ce5c00"/>
    <path d="m6946.912109,4508.48291c-17.166504,7.762207 -59.522949,0.662109 -83.5625,3.226563c-24.833984,2.649414 -51.640137,24.175781 -76.806152,21.02832c-24.359375,-3.046387 -39.936035,-27.022461 -57.726563,-34.557129c-18.378906,-7.783203 -55.698242,-6.222656 -63.702148,-16.662109c-7.747559,-10.105469 25.34375,-26.478516 31.993164,-36.707031c6.868652,-10.566895 -10.81543,-28.357422 7.697266,-35.89502c17.92041,-7.296387 57.47168,2.843262 81.205078,0.021484c24.51709,-2.915039 50.680176,-20.438477 76.039063,-17.845215c24.546387,2.510254 40.734375,20.491211 58.727051,27.72168c18.588379,7.469238 68.65625,9.672363 77.166016,19.845215c8.237305,9.847656 -42.148438,21.378906 -47.225098,31.71875c-5.243164,10.681641 13.928223,30.085449 -3.805176,38.104492z" id="path7711" stroke-dashoffset="0" stroke-miterlimit="4" stroke-linejoin="round" stroke-linecap="round" stroke-width="3" fill="#ce5c00"/>
    <path id="path7713" d="m6548.321289,4494.36377c-13.146484,8.696289 -45.583984,0.741699 -63.994629,3.614746c-19.018066,2.968262 -39.546875,27.084961 -58.819824,23.559082c-18.654785,-3.413086 -30.583984,-30.274414 -44.208496,-38.715332c-14.074707,-8.720215 -42.655273,-6.972168 -48.784668,-18.66748c-5.933594,-11.321289 19.408691,-29.664551 24.500977,-41.124023c5.260254,-11.838867 -8.282715,-31.77002 5.89502,-40.214844c13.723633,-8.174316 44.013672,3.185547 62.188965,0.024414c18.775879,-3.265625 38.812012,-22.898438 58.232422,-19.992676c18.79834,2.8125 31.195801,22.957031 44.974609,31.057129c14.23584,8.368164 52.579102,10.836426 59.096191,22.233887c6.308105,11.032227 -32.27832,23.951172 -36.166016,35.535156c-4.015625,11.967285 10.666016,33.706055 -2.914551,42.689941z" stroke-dashoffset="0" stroke-miterlimit="4" stroke-linejoin="round" stroke-linecap="round" stroke-width="3" fill="#f57900"/>
    <path d="m6808.691895,4244.754883c-13.744629,8.410156 -52.633301,-0.252441 -72.094238,3.983398c-19.460938,4.23584 -53.294434,24.584961 -74.310547,22.186035c-21.01709,-2.398926 -33.082031,-22.848145 -50.27002,-29.79834c-17.188477,-6.949707 -50.676758,-7.84668 -58.608398,-18.17041c-7.931152,-10.323242 12.601563,-31.167969 16.989258,-41.970703c4.387695,-10.802734 -9.069824,-30.024902 4.573242,-38.776855c13.64209,-8.752441 53.657715,-6.67334 73.912109,-9.981934c20.254395,-3.308105 43.966309,-17.670898 65.19873,-15.848145c21.23291,1.822754 39.660156,19.714844 56.923828,26.410156c17.263672,6.694824 52.375,12.608398 61.066406,22.884277c8.691895,10.275879 -14.659668,23.458496 -17.442383,34.504395c-2.782715,11.04541 7.806641,36.167969 -5.937988,44.578125z" id="path7715" stroke-dashoffset="0" stroke-miterlimit="4" stroke-linejoin="round" stroke-linecap="round" stroke-width="3" fill="#ad7fa8"/>
    <path id="path7717" d="m6330.032715,3993.53833c-10.758789,5.882568 -31.302734,6.953857 -46.579102,9.015869c-15.276367,2.062012 -37.642578,11.952148 -52.682617,9.536133c-15.039063,-2.416016 -28.740234,-14.31665 -39.693359,-19.985352c-10.952637,-5.668701 -30.830078,-11.429199 -35.46582,-19.190674c-4.63623,-7.761475 10.266602,-19.715332 13.903809,-27.376221c3.636719,-7.660645 -0.554688,-22.631348 10.663086,-28.154541c11.218262,-5.523193 38.869629,-2.127197 53.452637,-4.597412c14.583008,-2.469971 28.710449,-11.04126 43.874512,-9.035156c15.164063,2.005859 28.791016,14.067871 39.693359,19.985352c10.902344,5.917236 39.475586,8.831055 44.418945,16.396973c4.943359,7.565918 -10.441895,20.028809 -14.523926,27.581787c-4.082031,7.553223 -6.303223,19.940918 -17.061523,25.823242z" stroke-dashoffset="0" stroke-miterlimit="4" stroke-linejoin="round" stroke-linecap="round" stroke-width="3" fill="#f57900"/>
    <path id="path7719" d="m6298.589355,4217.276855c-9.891602,6.602539 -38.253418,-3.254395 -51.90918,0.266602c-13.65625,3.520996 -41.703613,22.417969 -56.668457,20.230957c-14.964844,-2.1875 -22.513672,-19.545898 -35.091797,-25.015137c-12.578125,-5.46875 -34.88916,-4.723633 -40.739258,-12.891113c-5.849121,-8.166992 7.720215,-27.27832 11.236328,-35.782227c3.515625,-8.503906 -6.693359,-24.055664 3.08252,-31.09668c9.775391,-7.041016 39.453613,-5.616699 54.007813,-7.958008c14.554199,-2.341309 30.916016,-13.554199 46.150391,-12.103516c15.234375,1.450195 30.118164,15.529785 42.771973,20.669922c12.654785,5.140137 36.851563,10.841309 43.577148,18.936035c6.725098,8.094727 -10.087402,17.390137 -11.758789,26.208008c-1.671875,8.817383 5.233398,31.932617 -4.658691,38.535156z" stroke-dashoffset="0" stroke-miterlimit="4" stroke-linejoin="round" stroke-linecap="round" stroke-width="3" fill="#fcaf3e"/>
   </g>
   <path d="m2238.416016,979.580322c1.557861,0.307556 1.94751,1.013672 3.255615,2.069519c1.702393,1.812073 5.149902,7.238953 4.762207,8.126282c-0.514404,1.598511 -4.845703,-7.459351 -8.017822,-10.195801zm29.247559,3.951477c-3.69751,6.530396 -4.045654,7.019653 -6.929199,6.924927c0.612305,-1.205078 2.370605,-2.186401 3.604492,-3.331421c1.314697,-1.220642 2.029541,-3.503174 3.324707,-3.593506zm-12.996826,0.238098c4.208496,4.266846 4.657959,5.803528 3.949219,6.283997c-1.296143,0.463806 -1.013184,-0.746704 -3.949219,-6.283997zm-7.872803,0.914978c1.035889,-0.163635 1.790771,1.314148 2.202393,2.522888c1.051514,3.086487 1.063477,2.640991 0.354736,2.902588c-0.977295,0.360596 -0.970947,-2.788635 -2.557129,-5.425476zm-6.968506,-0.283447c1.084229,0.030151 1.648438,1.280457 2.408691,2.434509c0.763672,2.2005 2.986572,3.567505 1.418945,3.651062c-1.558838,0.083191 -2.637207,-3.473633 -3.827637,-6.085571zm11.62207,0.846558c3.419678,3.538391 4.151123,4.623718 2.777832,4.769775c-0.885742,0.094177 -0.955566,-0.770386 -1.966553,-2.224243c-0.651367,-0.93634 -1.463135,-1.756836 -0.811279,-2.545532z" id="path7788" stroke-dashoffset="0" stroke-miterlimit="4" stroke-linejoin="round" stroke-linecap="round" stroke-width="3" fill="#1e9e00" opacity="0.698"/>
  </g>
 </g>
</svg>